<svg version="1.2" baseProfile="tiny" id="Layer_1" xmlns="http://www.w3.org/2000/svg" xmlns:xlink="http://www.w3.org/1999/xlink"
	 x="0px" y="0px" width="30px" height="30px" viewBox="0 0 30 30" xml:space="preserve">
<g>
	<path fill="#FFFFFF" d="M8.652,5.432L12,14h-1.26l-0.936-2.58H6.18L5.22,14H4.056l3.336-8.568H8.652z M9.444,10.46L8.016,6.464
		H7.992L6.54,10.46H9.444z"/>
	<path fill="#FFFFFF" d="M21.485,15.432c0.185,0,0.383,0.002,0.595,0.007c0.212,0.004,0.422,0.016,0.63,0.035
		c0.208,0.021,0.402,0.051,0.582,0.091s0.334,0.1,0.462,0.18c0.28,0.168,0.519,0.4,0.714,0.696c0.196,0.296,0.294,0.659,0.294,1.092
		c0,0.456-0.11,0.85-0.329,1.182c-0.221,0.332-0.535,0.578-0.943,0.738v0.023c0.529,0.112,0.933,0.353,1.213,0.721
		c0.279,0.368,0.42,0.815,0.42,1.344c0,0.312-0.057,0.616-0.168,0.912c-0.112,0.296-0.278,0.558-0.498,0.786
		c-0.221,0.228-0.492,0.412-0.816,0.552S22.942,24,22.519,24h-4.141v-8.568H21.485z M21.798,19.116c0.648,0,1.113-0.114,1.398-0.342
		c0.283-0.229,0.426-0.57,0.426-1.026c0-0.304-0.049-0.544-0.145-0.72s-0.228-0.312-0.396-0.408s-0.362-0.158-0.582-0.187
		c-0.22-0.027-0.454-0.042-0.702-0.042h-2.28v2.725H21.798z M22.374,23.04c0.504,0,0.898-0.136,1.182-0.408
		c0.284-0.271,0.426-0.647,0.426-1.128c0-0.28-0.052-0.512-0.156-0.696c-0.104-0.184-0.241-0.33-0.413-0.438
		c-0.173-0.108-0.37-0.184-0.595-0.229c-0.224-0.044-0.455-0.065-0.695-0.065h-2.604v2.964H22.374z"/>
	<line fill="none" stroke="#FFFFFF" stroke-width="1.5" stroke-miterlimit="10" x1="20.281" y1="5.385" x2="10.281" y2="23.924"/>
</g>
</svg>
